<?xml version="1.0" standalone="no"?>
<!DOCTYPE svg PUBLIC "-//W3C//DTD SVG 20010904//EN"
 "http://www.w3.org/TR/2001/REC-SVG-20010904/DTD/svg10.dtd">
<svg version="1.0" xmlns="http://www.w3.org/2000/svg"
 width="32.000000pt" height="32.000000pt" viewBox="0 0 32.000000 32.000000"
 preserveAspectRatio="xMidYMid meet">

<g transform="translate(0.000000,32.000000) scale(0.100000,-0.100000)"
fill="#000000" stroke="none">
<path d="M202 295 c-12 -14 -28 -25 -35 -25 -26 0 -96 -59 -121 -103 -34 -57
-35 -119 -4 -141 12 -9 29 -16 37 -16 11 0 8 5 -7 16 -26 18 -30 70 -8 113 13
25 89 101 101 101 14 0 1 -25 -33 -63 -21 -23 -41 -49 -45 -58 -9 -26 29 -79
56 -79 20 0 32 17 76 100 42 80 56 99 66 90 10 -8 9 2 -4 37 -20 57 -46 66
-79 28z"/>
<path d="M16 294 c-9 -8 -16 -20 -16 -25 0 -16 30 -69 38 -69 5 0 21 13 37 30
27 28 27 30 11 55 -19 28 -47 32 -70 9z"/>
</g>
</svg>
